<svg width="16" height="15" viewBox="0 0 16 15" fill="none" xmlns="http://www.w3.org/2000/svg">
<path d="M7.11555 0.676337C7.49076 -0.0348099 8.50924 -0.0348078 8.88445 0.676339L10.5214 3.77891C10.6661 4.05316 10.9298 4.24477 11.2353 4.29763L14.6919 4.89571C15.4842 5.03279 15.7989 6.00143 15.2385 6.57802L12.7936 9.09359C12.5775 9.31595 12.4768 9.62598 12.5209 9.9329L13.0203 13.4051C13.1347 14.201 12.3108 14.7996 11.5892 14.4448L8.44125 12.897C8.16299 12.7601 7.83701 12.7601 7.55875 12.897L4.4108 14.4448C3.68925 14.7996 2.86527 14.201 2.97973 13.4051L3.47906 9.9329C3.5232 9.62598 3.42247 9.31595 3.20636 9.09359L0.761477 6.57803C0.201081 6.00143 0.515809 5.03279 1.30809 4.89571L4.76466 4.29763C5.07019 4.24477 5.33392 4.05316 5.47861 3.77891L7.11555 0.676337Z" fill="#9E9E9E"/>
</svg>
